<?xml version="1.0" encoding="utf-8"?>
<!-- Generator: Adobe Illustrator 24.3.0, SVG Export Plug-In . SVG Version: 6.00 Build 0)  -->
<svg version="1.1" id="Capa_1" xmlns="http://www.w3.org/2000/svg" xmlns:xlink="http://www.w3.org/1999/xlink" x="0px" y="0px"
	 viewBox="0 0 198 136" style="enable-background:new 0 0 198 136;" xml:space="preserve">
<style type="text/css">
	.st0{clip-path:url(#SVGID_2_);}
	.st1{fill-rule:evenodd;clip-rule:evenodd;fill:#5BCC85;}
	.st2{fill-rule:evenodd;clip-rule:evenodd;fill:#212121;}
	.st3{fill:#FFFFFF;}
	.st4{fill:#051626;}
	.st5{fill:#5BCC85;}
</style>
<g>
	<defs>
		<rect id="SVGID_1_" width="198" height="136"/>
	</defs>
	<clipPath id="SVGID_2_">
		<use xlink:href="#SVGID_1_"  style="overflow:visible;"/>
	</clipPath>
	<g class="st0">
		<path class="st1" d="M118.4,77.6l-0.1-1c-0.1-1.3,0.7-2.4,2-2.7c0.8-0.2,1.5,0.2,2.2,0.9c0.2-1,0.8-1.5,1.9-1.6
			c1-0.1,1.8,0.4,2.3,1.3c0.1-0.9,0.7-1.5,1.7-1.7c0.6-0.1,1.7-0.3,2.4,0c0.1,0.1,0.4,0.3,0.7,0.7l-8.6-17.7L98.1,41.5l0,0L91,39.2
			c-0.1,0-0.2,0-0.3,0l-10,0.9c-0.3,0-0.6,0.3-0.6,0.6v1L58.7,46L47.4,32.2l-0.2,0.1c-0.3,1.3-0.6,2.1-1.1,2.6
			c-0.7,0.8-2.2,2-4.4,2.2c-0.5,0-1.1,0-1.9-0.2c-1-0.2-2-0.6-2.8-1.2l-0.3,0.1L46.9,62l32.4-4.2c0.6,3,1.6,6.7,2.9,11
			c15.8,2.8,23.6,4.2,23.5,4.2c-0.1,0-1.2-4.2-3.2-12.7l10.7,8.9L118.4,77.6z M121.9,25c-0.5,0-0.9,0.4-0.9,0.9v0.5
			c0,0.5,0.4,0.9,0.9,0.9h6.7c0.5,0,0.9-0.4,0.9-0.9v-0.5c0-0.5-0.4-0.9-0.9-0.9H121.9z M150.8,25c-0.5,0-0.9,0.4-0.9,0.9v0.5
			c0,0.5,0.4,0.9,0.9,0.9h12.8c0.5,0,0.9-0.4,0.9-0.9v-0.5c0-0.5-0.4-0.9-0.9-0.9H150.8z M140.5,18.4c-0.5,0-0.9,0.4-0.9,0.9v0.5
			c0,0.5,0.4,0.9,0.9,0.9h4.5c0.5,0,0.9-0.4,0.9-0.9v-0.5c0-0.5-0.4-0.9-0.9-0.9H140.5z M140.5,31.3c-0.5,0-0.9,0.4-0.9,0.9v0.5
			c0,0.5,0.4,0.9,0.9,0.9h4.5c0.5,0,0.9-0.4,0.9-0.9v-0.5c0-0.5-0.4-0.9-0.9-0.9H140.5z"/>
		<path class="st2" d="M126.4,74.8l0.9,7.9c0,0,0,0.1,0,0.1c-0.2,0.9-0.7,1.4-1.5,1.6c-0.9,0.1-1.5-0.2-1.9-1.1
			c0-0.1-0.1-0.1-0.1-0.1l-0.8-8c0,0,0,0,0,0c0.2-0.9,0.7-1.3,1.6-1.4C125.3,73.7,125.9,74,126.4,74.8z M127,74.8
			C127,74.8,127,74.8,127,74.8c0.1-0.8,0.5-1.3,1.5-1.5c1.1-0.2,1.8-0.2,2.3,0c0,0,0.1,0.1,0.3,0.2c0.2,0.2,0.4,0.4,0.6,0.7
			c0.1,0.1,0.2,0.3,0.3,0.5l2.1,4.6l-2.5,0.5c-0.2,0-0.3,0.2-0.3,0.3l0.2,1.8c0,0,0,0,0,0c-0.2,1.2-0.7,1.8-1.5,1.9
			c-0.8,0.1-1.4-0.2-2-1c0,0,0-0.1,0-0.1L127,74.8z M122.2,75.1l0.8,8.1c0,0.1,0,0.1,0.1,0.2c-0.4,0.8-1,1.3-1.8,1.4
			c-0.4,0.1-0.7,0-1-0.1c-0.6-0.2-1-0.7-1-1.2l-0.6-6.8c-0.1-1.1,0.6-2.1,1.7-2.3C121.1,74.3,121.7,74.5,122.2,75.1L122.2,75.1z
			 M134.7,79.5l31.2-3.1l1,52.8h-45.4l8-14.1c0,0,0,0,0.1,0l32.6,0c0.2,0,0.3-0.1,0.3-0.3c0-0.2-0.1-0.3-0.3-0.3h-32.6l-9.8-29.2
			c0.1,0,0.2,0.1,0.3,0.1c0.4,0.1,0.8,0.1,1.3,0.1c0.4-0.1,0.8-0.2,1.1-0.4l8.8,27.4H164l-0.6-33.4L132,82.3c0-0.1,0-0.2,0-0.2
			c0-0.1,0-0.1,0-0.2l-0.1-1.5l2.6-0.5C134.7,79.9,134.8,79.7,134.7,79.5z M118.4,80.4l-0.4,0c-0.2,0-0.3,0.2-0.3,0.4l1,2.9
			c0,0.2,0.1,0.5,0.2,0.7l10.2,30.4l-8.4,14.6c-0.1,0.2,0,0.5,0.3,0.5h46.3c0.2,0,0.3-0.1,0.3-0.3l-1.1-53.5c0-0.2-0.2-0.3-0.3-0.3
			l-15.5,1.5l-0.1-0.8c0-0.6-0.5-1-1.1-0.9l0,0l5.8-11.2c0.1-0.1,0-0.3,0-0.4l-7-8.2l7.6-15.1h0.4c0.6,0,1-0.5,1-1V39h11.5
			c0.2,0,0.3-0.1,0.3-0.3V10.7c0-1.1-0.9-1.9-1.9-1.9h-55.4c-1,0-1.9,0.9-1.9,1.9v5.7c0,0-0.1,0-0.1,0l-0.9,0c-0.6,0-1,0.5-1,1
			l0,0.5l-12.7-2.5c0,0-0.1,0-0.1,0l-13,2.6l-15.7-1.4v-0.4c0-0.6-0.5-1-1-1h-0.3c-0.8-3.5-3.8-6-7.5-6h-9.5c-4.2,0-7.7,3.4-7.7,7.7
			s3.4,7.7,7.7,7.7h9.5c3.6,0,6.7-2.5,7.5-6h0.3c0.6,0,1-0.5,1-1v-0.3l15.7,1.4c0,0,0.1,0,0.1,0L95.3,16l12.8,2.5l0,0.2
			c0,0.6,0.5,1,1,1l0.9,0c0,0,0,0,0,0v18.9c0,0.2,0.1,0.3,0.3,0.3h43.6v0.7c0,0.6,0.5,1,1,1h0.3l-7.5,15c-0.1,0.1,0,0.3,0,0.3l7,8.2
			l-5.9,11.4l-0.6,0c-0.6,0-1,0.6-0.9,1.1l0.1,0.9l-12.9,1.3l-2-4.3c-0.1-0.2-0.2-0.4-0.4-0.6c-0.5-0.7-0.9-1.1-1.1-1.2
			c-0.4-0.2-0.8-0.2-1.4-0.2c-0.4,0-0.7,0.1-1.2,0.2c-0.9,0.2-1.5,0.6-1.8,1.3c-0.5-0.6-1.3-0.9-2.2-0.9c-1,0.1-1.7,0.5-2,1.3
			c-0.6-0.6-1.3-0.8-2.1-0.6c-1.4,0.3-2.4,1.6-2.2,3L118.4,80.4z M156.7,38.3C156.7,38.3,156.7,38.3,156.7,38.3
			c-0.1-0.1-0.2,0-0.3,0h-38V14.6h50.1v23.7H156.7z M84,33.8c0.1,0.3,0.3,0.5,0.6,0.5c0.3,0,0.6-0.3,0.6-0.7c0-0.2-0.1-0.3-0.2-0.4
			c0.1,0,0.2-0.1,0.3-0.1c0.6-0.1,1.3,0,1.9,0.4c-0.4,0.6-1,0.9-1.6,1c-0.6,0.1-1.3,0-1.9-0.4C83.8,34,83.9,33.9,84,33.8z M83,26.4
			c-0.4,0.3-0.7,0.7-0.9,1.2c-0.2,0.9,0.3,1.8,1.1,2.2c-1.5,0.7-2.5,2.2-2.6,4l-0.1,6.4c0.1-0.1,0.2-0.1,0.3-0.1l0.3,0l0.1-6.3
			c0-0.7,0.2-1.3,0.5-1.8l0.8-0.7c-0.9,1.4-1.2,3.1-0.9,5.2c0,0.2,0.2,0.3,0.3,0.3l2-0.2c0.2,0,0.3-0.2,0.3-0.3
			c0-0.2-0.2-0.3-0.3-0.3l-1.7,0.1c-0.2-2.6,0.4-4.5,1.9-5.7c0.9,0.5,1.6,1,2.2,1.3c0.6,0.4,1.6,1,2.9,1.7c0,0,0,0,0,0l0,0
			c0,0.2,0.2,0.3,0.4,0.2c0.2-0.1,0.3-0.1,0.5-0.1c1-0.1,1.8,0.6,1.9,1.6c0.1,1-0.6,1.8-1.6,1.9c-0.1,0-0.2,0-0.2,0
			c-0.2,0-0.4,0.2-0.3,0.4l0.3,1.8l0.4,0c0.1,0,0.2,0,0.2,0l-0.3-1.5c1.3-0.1,2.2-1.3,2.1-2.6c-0.1-1.3-1.3-2.3-2.6-2.2
			c-0.1,0-0.3,0-0.4,0.1c-0.5-1.8-1.9-3.1-3.6-3.5c0.6-0.4,1-1.1,0.9-1.8c0,0,0,0,0,0c-0.1-0.7-0.6-1.3-1.2-1.6
			c0.4-0.3,0.7-0.9,0.6-1.5c0,0,0,0,0,0c-0.1-0.9-0.9-1.5-1.7-1.4l-1.2,0.1c-0.7,0.1-1.3,0.6-1.4,1.3C82.1,25.3,82.4,26,83,26.4z
			 M83.1,34.4c0.9,0.6,1.7,0.8,2.6,0.6c0.9-0.2,1.6-0.7,2.2-1.6c0.1-0.1,0.1-0.3-0.1-0.4c-0.9-0.6-1.7-0.8-2.6-0.6
			c-0.9,0.2-1.6,0.7-2.2,1.6C82.9,34.1,82.9,34.3,83.1,34.4z M82.9,37.6c0.6,0.2,1.2,0.1,1.8-0.2c0.2-0.1,0.2-0.3,0.1-0.4
			c-0.1-0.2-0.3-0.2-0.4-0.1c-0.5,0.3-1,0.3-1.3,0.2c-0.2-0.1-0.3,0-0.4,0.2S82.7,37.5,82.9,37.6z M51.1,120.5l2.6,8.8h-6.2l1.3-6.9
			c0.1-0.3-0.3-0.5-0.6-0.3l-5.8,7.2H20.3l0.2-0.4c0.5-1.2,1.5-2.2,2.8-2.5l5.7-1.4h3.8c0.2,0,0.3-0.1,0.3-0.3
			c0-0.2-0.1-0.3-0.3-0.3h-3.3l2.4-3.8H51.1z M86.9,120.5C86.9,120.5,86.9,120.5,86.9,120.5l1.3,8.8h-2.2l-0.8-5.4
			c-0.1-0.4-0.6-0.4-0.6,0l-1,5.4H67.1l2.1-4c0.1,0,0.1,0.1,0.2,0.1h8.1c0.2,0,0.3-0.1,0.3-0.3c0-0.2-0.1-0.3-0.3-0.3h-8l2.1-4
			c0,0,0-0.1,0-0.1H86.9z M87.5,120.5h2l7.6-22l0,0l3.5-10.5c0.1-0.2,0.2-0.3,0.4-0.2c0.2,0.1,0.3,0.2,0.2,0.4l-3.5,10.4l0.2,0
			c0,0,0.1,0,0.1,0c0,0,0,0.1,0,0.2l2.6,15.4l2.6,15.4c0.1,0.4,0.7,0.3,0.6-0.1l-2.6-15.4l-2.6-15.4c0,0,0,0,0-0.1h3.4l5-23.7
			c0-0.1,0-0.1,0-0.2c0.1-0.9-0.4-1.7-1.1-2.1l0-0.1L78.3,62L77,68.5c0,0,0,0,0,0c0.2,0,0.3,0.2,0.3,0.4l-3.1,17.9
			c0,0.2-0.2,0.3-0.4,0.3c-0.2,0-0.3-0.2-0.3-0.4l3.1-17.9c0-0.1,0.1-0.2,0.2-0.3l-30-6.5L29,120.5h2.1l-2.4,3.9l-5.6,1.4
			c-1.5,0.4-2.7,1.4-3.2,2.9l-0.3,0.8c-0.1,0.2,0.1,0.4,0.3,0.4h22.8c0.1,0,0.2,0,0.2-0.1l5.1-6.3l-1.1,6c0,0.2,0.1,0.4,0.3,0.4h7
			c0.2,0,0.4-0.2,0.3-0.4l-2.7-9h1.9l9.3-27.2l8.8,1.4L71,98.5h-4.8c-0.1,0-0.3,0.1-0.3,0.3l-6.6,30.8c0,0.2,0.1,0.3,0.2,0.4
			c0.2,0,0.3-0.1,0.4-0.2l6.6-30.5h4.4l-4.3,21.4H71l-4.7,8.9c-0.1,0.2,0,0.5,0.3,0.5h17.4c0.2,0,0.3-0.1,0.3-0.3l0.7-3.7l0.5,3.7
			c0,0.2,0.2,0.3,0.3,0.3h2.8c0.2,0,0.3-0.2,0.3-0.4L87.5,120.5z M100.8,114.2l0.6-0.1L100.8,114.2z M31.4,23.5c0,0,0-0.1,0-0.1
			c-0.3-0.5-0.2-1.2,0.3-1.5c0.1-0.1,0.3-0.2,0.5-0.2c0.3,0,0.5,0,0.8,0.1c0.7,0.2,1.6,1,2.8,2.3c0,0,0,0,0,0l1.7,2.2
			c0.1,0.1,0.3,0.2,0.4,0.1c0.1-0.1,0.2-0.3,0.1-0.4l-1.6-2l4.5-4.6c-0.1-0.2-0.1-0.5-0.2-0.7L36,23.5c-1.2-1.3-2.1-2-2.9-2.3
			c-0.3-0.1-0.6-0.1-1-0.1c-0.3,0-0.5,0.1-0.8,0.3c-0.5,0.4-0.8,1-0.8,1.6c-0.5-0.2-1-0.3-1.3-0.3c-0.3,0-0.7,0.1-0.9,0.3
			c-0.7,0.5-0.8,1.5-0.2,2.2l8.7,10.6c0.1,0.1,0.3,0.2,0.4,0c0.1-0.1,0.2-0.3,0-0.4l-8.7-10.6c-0.3-0.4-0.2-1,0.1-1.3
			c0.2-0.1,0.4-0.2,0.6-0.2c0.3,0,0.9,0.2,1.6,0.5c0,0,0,0,0,0.1l3.3,3.6c0.1,0.1,0.3,0.1,0.4,0s0.1-0.3,0-0.4L31.4,23.5z
			 M43.2,28.4l-0.3,2.5c0,0.2,0.1,0.3,0.3,0.4c0.2,0,0.3-0.1,0.4-0.3l0.3-2.6c0.8-1.9,1.4-3.1,1.9-3.6c0.4-0.4,1.1-0.4,1.5,0
			c0.2,0.2,0.3,0.5,0.3,0.8c-0.5,4.9-0.9,7.7-1.4,8.5c-0.1,0.2,0,0.3,0.1,0.4c0.2,0.1,0.3,0,0.4-0.1c0.5-0.9,0.9-3.8,1.4-8.8
			c0-0.4-0.1-0.8-0.3-1.1c-0.8,0-1.6-0.2-2.3-0.4c-0.1,0.1-0.2,0.1-0.2,0.2c-0.5,0.5-1.1,1.6-1.9,3.3l-2.2-3.4
			c0.5-0.8,1-1.5,1.4-2.1c-0.2-0.2-0.3-0.3-0.4-0.5c-0.4,0.7-0.9,1.5-1.6,2.4c-0.1,0.1-0.1,0.2,0,0.4L43.2,28.4z M41.7,33.2
			c0.1,0.2,0.3,0.2,0.4,0.2c0.2-0.1,0.2-0.3,0.2-0.4c-1.1-2.5-3.3-3.5-6.6-3.2c-0.2,0-0.3,0.2-0.3,0.4c0,0.2,0.2,0.3,0.3,0.3
			C38.8,30.1,40.8,31,41.7,33.2z M45.8,16.8l3.7,2.8c0.1,0.1,0.2,0.3,0.1,0.4c-0.1,0.1-0.3,0.2-0.4,0.1l-4-3c-0.2-0.1-0.2-0.4,0-0.5
			l4-3c0.1-0.1,0.3-0.1,0.4,0.1c0.1,0.1,0.1,0.3-0.1,0.4L45.8,16.8z M56.5,19.6l3.7-2.8l-3.7-2.8c-0.1-0.1-0.2-0.3-0.1-0.4
			c0.1-0.1,0.3-0.2,0.4-0.1l4,3c0.2,0.1,0.2,0.4,0,0.5l-4,3c-0.1,0.1-0.3,0.1-0.4-0.1C56.3,19.9,56.3,19.7,56.5,19.6z M53.3,12.7
			c0-0.2,0.2-0.3,0.4-0.3c0.2,0,0.3,0.2,0.3,0.4l-1.3,8c0,0.2-0.2,0.3-0.4,0.3c-0.2,0-0.3-0.2-0.3-0.4L53.3,12.7z M117.8,38.3h-7.1
			V14.6h7.1V38.3z M113.3,18.7v2h2v-2H113.3z M113.3,25.1v2h2v-2H113.3z M113.3,31.5v2h2v-2H113.3z M121.9,18.4
			c-0.5,0-0.9,0.4-0.9,0.9v0.5c0,0.5,0.4,0.9,0.9,0.9h15c0.5,0,0.9-0.4,0.9-0.9v-0.5c0-0.5-0.4-0.9-0.9-0.9H121.9z M132.2,25
			c-0.5,0-0.9,0.4-0.9,0.9v0.5c0,0.5,0.4,0.9,0.9,0.9h15c0.5,0,0.9-0.4,0.9-0.9l0-0.5c0-0.5-0.4-0.9-0.9-0.9H132.2z M148.7,18.4
			c-0.5,0-0.9,0.4-0.9,0.9v0.5c0,0.5,0.4,0.9,0.9,0.9h15c0.5,0,0.9-0.4,0.9-0.9v-0.5c0-0.5-0.4-0.9-0.9-0.9H148.7z M121.9,31.3
			c-0.5,0-0.9,0.4-0.9,0.9v0.5c0,0.5,0.4,0.9,0.9,0.9h15c0.5,0,0.9-0.4,0.9-0.9v-0.5c0-0.5-0.4-0.9-0.9-0.9H121.9z M148.7,31.3
			c-0.5,0-0.9,0.4-0.9,0.9v0.5c0,0.5,0.4,0.9,0.9,0.9h15c0.5,0,0.9-0.4,0.9-0.9v-0.5c0-0.5-0.4-0.9-0.9-0.9H148.7z M157,13.1
			c-0.7,0-1.2-0.6-1.2-1.2c0-0.7,0.6-1.2,1.2-1.2c0.7,0,1.2,0.6,1.2,1.2C158.2,12.6,157.6,13.1,157,13.1z M161.1,13.1
			c-0.7,0-1.2-0.6-1.2-1.2c0-0.7,0.6-1.2,1.2-1.2s1.2,0.6,1.2,1.2C162.3,12.6,161.7,13.1,161.1,13.1z M165.2,13.1
			c-0.7,0-1.2-0.6-1.2-1.2c0-0.7,0.6-1.2,1.2-1.2s1.2,0.6,1.2,1.2C166.5,12.6,165.9,13.1,165.2,13.1z M133,118.4
			c0.1-0.2,0-0.3-0.1-0.4c-0.2-0.1-0.3,0-0.4,0.1l-3.4,6.7c-0.1,0.2,0,0.5,0.3,0.5h32.9c0.2,0,0.3-0.1,0.3-0.3
			c0-0.2-0.1-0.3-0.3-0.3h-32.4L133,118.4z M141.5,100.6c0,0.3-0.1,0.5-0.3,0.6c0.9,2.7,2.5,4.4,4.9,4.9c0,0,0-0.1,0.1-0.1
			c0.1-0.1,0.2-0.2,0.3-0.3l-0.5-5.6C144.3,100.3,142.8,100.5,141.5,100.6z M139.7,100.1c0-0.1,0.1-0.2,0.2-0.3
			c0.1-0.1,0.2-0.2,0.3-0.3c-0.1-0.6-0.2-1.2-0.2-1.9c-0.1-1.3-0.1-2.6,0.1-3.7c-0.2-0.1-0.3-0.3-0.3-0.5c0,0,0,0,0-0.1
			c-1.7,0.1-2.8,0.2-3.2,0.2c-0.3,0.9-0.4,1.9-0.4,3.1c0,0.3,0,0.6,0.1,1c0.1,0.3,0.1,0.5,0.2,0.9c0,0.1,0.1,0.3,0.1,0.4
			c0,0.2,0.1,0.3,0.1,0.4c0.1,0.3,0.2,0.7,0.3,1C137.4,100.3,138.3,100.3,139.7,100.1z M140.8,99.5c0.1,0,0.2,0.1,0.3,0.1
			c0.1,0.1,0.2,0.2,0.3,0.3c1.3-0.1,2.8-0.3,4.6-0.5l-0.6-6.6c-1.5,0.1-2.8,0.2-3.9,0.3c0,0.3-0.1,0.6-0.4,0.8
			c-0.1,0.1-0.4,0.1-0.5,0.1c-0.1,1.1-0.2,2.2-0.1,3.5C140.6,98.3,140.7,98.9,140.8,99.5z M140.6,101.4
			C140.6,101.4,140.6,101.4,140.6,101.4c-0.1,0-0.2,0-0.3,0c-0.3-0.1-0.5-0.3-0.6-0.6c-1.2,0.1-2,0.2-2.5,0.2c1.1,2.4,3,4.2,5.4,4.9
			c0.5,0.2,1.2,0.3,1.9,0.3C142.7,105.4,141.4,103.8,140.6,101.4z M151.5,100c-0.1-0.1-0.2-0.2-0.3-0.4c-1.7,0.2-3.2,0.3-4.5,0.5
			l0.5,5.6c0.1,0,0.3,0.1,0.4,0.2c0,0,0,0,0,0C149.6,104.5,150.9,102.6,151.5,100z M152.3,98.3c0.1,0,0.2,0.1,0.3,0.1
			c0.1,0.1,0.2,0.2,0.3,0.3c0.7-0.1,1.5-0.2,2.3-0.2c0.1-0.6,0.1-1.2,0.1-1.9c0-1.6-0.4-3.1-1-4.5c-0.8,0.1-1.5,0.1-2.2,0.2
			c0,0.2-0.1,0.3-0.2,0.4c0.2,0.9,0.4,1.8,0.4,2.8C152.4,96.6,152.4,97.5,152.3,98.3z M151.1,99c0-0.1,0.1-0.2,0.2-0.3
			c0.1-0.1,0.2-0.2,0.4-0.3c0.1-0.8,0.1-1.7,0-2.7c-0.1-0.9-0.2-1.8-0.4-2.6c-0.1,0-0.1,0-0.2,0c-0.1,0-0.2,0-0.3,0
			c-0.3-0.1-0.5-0.3-0.6-0.6c-1.5,0.1-2.9,0.2-4.2,0.4l0.6,6.6C148,99.3,149.5,99.1,151.1,99z M153,99.4c0,0.3-0.1,0.5-0.3,0.6
			c-0.1,0.1-0.4,0.1-0.6,0.1c-0.5,2.5-1.8,4.4-3.7,5.8c1.3-0.3,2.5-0.7,3.3-1.2c1.9-1.2,3-3.1,3.4-5.6
			C154.4,99.3,153.7,99.3,153,99.4z M146.1,106.9c-0.1,0-0.3,0-0.4,0c-1.2,0-2.3-0.1-3.2-0.4c-3.2-1-5.5-3.6-6.4-7
			c0-0.1-0.1-0.2-0.1-0.4c0-0.1-0.1-0.3-0.1-0.4c-0.1-0.4-0.2-0.6-0.2-0.9c-0.1-0.4-0.2-0.8-0.2-1.2c0-2.5,0.7-4.5,2.1-6.3
			c1.7-2,4.1-3.5,6.7-3.9c0-0.1,0.1-0.3,0.2-0.4c0.2-0.2,0.5-0.4,0.8-0.4c0.2,0,0.4,0.1,0.6,0.2c0.2,0.1,0.3,0.3,0.3,0.5
			c2,0.1,4,0.7,5.6,1.8c2.7,1.9,4.2,5,4.2,8.4c0,4-1.2,7-3.8,8.7c-1,0.7-2.6,1.1-4.2,1.4c0,0.3-0.1,0.5-0.3,0.7
			c-0.1,0.1-0.4,0.1-0.6,0.1c-0.1,0-0.2,0-0.3,0C146.4,107.4,146.2,107.2,146.1,106.9z M145.6,87.6l0.4,4.7c1.3-0.1,2.7-0.2,4.2-0.4
			c0-0.1,0.1-0.2,0.2-0.3c0.1-0.1,0.2-0.2,0.4-0.3c-0.9-2.3-2.5-3.6-4.7-4.1c-0.1,0.1-0.1,0.3-0.3,0.4
			C145.7,87.5,145.6,87.6,145.6,87.6z M144.6,87.5c-1.8,1.2-3,2.8-3.6,4.9c0,0,0.1,0,0.1,0.1c0.1,0.1,0.2,0.1,0.2,0.2
			c1.1-0.1,2.5-0.2,4-0.3l-0.4-4.7c0,0,0,0,0,0C144.8,87.6,144.7,87.5,144.6,87.5z M151.4,91.3c0.1,0,0.2,0.1,0.3,0.1
			c0.1,0.1,0.2,0.2,0.3,0.4c0.6-0.1,1.3-0.1,2-0.2c-0.7-1.1-1.5-2.1-2.6-2.8c-0.9-0.6-1.9-1.1-3.1-1.4
			C149.7,88.2,150.7,89.5,151.4,91.3z M139.7,92.8c0,0,0.1-0.1,0.1-0.1c0.1-0.2,0.3-0.3,0.6-0.3c0.6-2.1,1.8-3.8,3.6-5.1
			c-2.3,0.5-4.5,1.8-6,3.6c-0.6,0.7-1,1.4-1.3,2.2C137.2,92.9,138.2,92.9,139.7,92.8z"/>
		<path class="st3" d="M144,84.9c-3.6,0.5-6.5,2.2-8.6,5c-2.2,2.8-3,5.9-2.5,9.3c0.5,3.4,2.2,6.2,5.1,8.2c2.9,2,6.1,2.8,9.7,2.3
			c3.6-0.5,6.4-2.2,8.6-5c2.2-2.8,3-5.9,2.5-9.3c-0.5-3.4-2.2-6.2-5.1-8.2C150.7,85.1,147.5,84.4,144,84.9z"/>
		<path class="st4" d="M144.1,87.2c-2.9,0.4-5.2,1.8-7,4c-1.8,2.3-2.4,4.8-2,7.6c0.4,2.8,1.8,5,4.1,6.7c2.3,1.7,5,2.3,7.9,1.9
			c2.9-0.4,5.2-1.8,7-4c1.8-2.3,2.4-4.8,2-7.6c-0.4-2.8-1.8-5-4.1-6.7C149.6,87.4,147,86.8,144.1,87.2z"/>
		<path class="st3" d="M140.5,93.9l9-1.3c0.5-0.1,1,0.3,1,0.8v0c0.1,0.5-0.3,1-0.8,1l-9,1.3c-0.5,0.1-1-0.3-1-0.8v0
			C139.6,94.5,140,94,140.5,93.9z"/>
		<path class="st3" d="M140.9,97l3.2-0.5c0.5-0.1,1,0.3,1,0.8v0c0.1,0.5-0.3,1-0.8,1l-3.2,0.5c-0.5,0.1-1-0.3-1-0.8v0
			C140.1,97.5,140.4,97,140.9,97z"/>
		<path class="st5" d="M146.7,96.1l3.2-0.5c0.5-0.1,1,0.3,1,0.8v0c0.1,0.5-0.3,1-0.8,1l-3.2,0.5c-0.5,0.1-1-0.3-1-0.8l0,0
			C145.8,96.7,146.2,96.2,146.7,96.1z"/>
		<path class="st3" d="M141.4,100l1.8-0.3c0.5-0.1,1,0.3,1,0.8l0,0c0.1,0.5-0.3,1-0.8,1l-1.8,0.3c-0.5,0.1-1-0.3-1-0.8v0
			C140.5,100.6,140.9,100.1,141.4,100z"/>
		<path class="st5" d="M145.7,99.4l4.7-0.7c0.5-0.1,1,0.3,1,0.8v0c0.1,0.5-0.3,1-0.8,1l-4.7,0.7c-0.5,0.1-1-0.3-1-0.8v0
			C144.8,99.9,145.2,99.4,145.7,99.4z"/>
	</g>
</g>
</svg>
