<?xml version="1.0" encoding="utf-8"?>
<!-- Generator: Adobe Illustrator 24.3.0, SVG Export Plug-In . SVG Version: 6.00 Build 0)  -->
<svg version="1.1" id="Capa_1" xmlns="http://www.w3.org/2000/svg" xmlns:xlink="http://www.w3.org/1999/xlink" x="0px" y="0px"
	 viewBox="0 0 204 140" style="enable-background:new 0 0 204 140;" xml:space="preserve">
<style type="text/css">
	.st0{clip-path:url(#SVGID_2_);}
	.st1{fill-rule:evenodd;clip-rule:evenodd;fill:#5BCC85;}
	.st2{fill-rule:evenodd;clip-rule:evenodd;fill:#051626;}
	.st3{fill:#FFFFFF;}
	.st4{fill:#051626;}
	.st5{fill:#5BCC85;}
</style>
<g>
	<defs>
		<rect id="SVGID_1_" width="204" height="140"/>
	</defs>
	<clipPath id="SVGID_2_">
		<use xlink:href="#SVGID_1_"  style="overflow:visible;"/>
	</clipPath>
	<g class="st0">
		<path class="st1" d="M103.5,39.4l-0.4-2.6l11.3-1.2l0.3,1.2l4.2-0.4h1.3l21.6,7.6c-0.2,0.1-0.4,0.4-0.5,0.6
			c-0.2,0.6-0.3,1.2-0.2,1.9c0.1,0.7,0.7,1.4,1.2,2.1c0.3,0.4,0.8,1,1.4,1.9l-4.9,0.8c-1.3,0.4-2,1.2-2,2.2c0,1,0.6,1.7,1.7,2.2
			c-1,0.4-1.5,1.1-1.5,2.1c0,1,0.6,1.7,1.7,2c-0.9,0.5-1.4,1.2-1.4,2.2l-12.6-4.9l2.6,9.6l-24.5-0.7l-2-7.2l-17.8,4
			c-1.1,0.2-2.1-0.4-2.4-1.5l-2.6-10l-3.2-14.2c0-0.2,0.1-0.4,0.3-0.5l12.4-3.5c0.2-0.1,0.4,0.1,0.5,0.3l3.3,9.8l8-2.2L103.5,39.4z
			 M117.7,47.7l0,0.2l-1,0c-0.8,0.1-1.3,0.3-1.3,0.5c0,0.6,3.9,1.5,8.7,1.5c4.8,0,8.7-0.4,8.7-1c0-0.6-3.9-1.3-8.7-1.3
			C121.5,47.5,119.3,47.5,117.7,47.7z M144.5,44.8l7,2.5c0.5,0.2,0.8,0.5,1,1l2.6,5.6c0.5,1.1,0.6,2.4,0.1,3.6l-1.9,5.2
			c-0.2,0.6-0.7,1-1.2,1.1l-1.8,0.5l-1.3-0.1l0.2,0c1.5-0.2,2.6-1.5,2.5-3l-0.3-7.4c-0.1-2-1-3.9-2.6-5.2L144.5,44.8z M131.8,52.8
			l-0.7,5.4c0,0.2,0.1,0.3,0.3,0.4c0.2,0,0.3-0.1,0.4-0.3l0.7-5.4c0-0.2-0.1-0.3-0.3-0.4C132,52.5,131.8,52.6,131.8,52.8z
			 M105.2,38.1c-0.1,0-0.1,0.1-0.1,0.2l0.1,0.6c0,0.1,0.1,0.1,0.2,0.1l1.9-0.3l-0.2-1L105.2,38.1z M105.5,39.8
			c-0.1,0-0.1,0.1-0.1,0.2l0.1,0.6c0,0.1,0.1,0.1,0.2,0.1l1.9-0.3l-0.2-1L105.5,39.8z"/>
		<path class="st2" d="M107.4,39.5l-1.9,0.3c-0.1,0-0.1,0.1-0.1,0.2l0.1,0.6c0,0.1,0.1,0.1,0.2,0.1l1.9-0.3l0.3,1.6
			c0.1,0.7-0.3,1.4-1.1,1.5l-0.7,0.1c0,0,0,0.1,0.1,0.1c0.4,2.1,2.4,3.4,4.4,3.1l1.3-0.2c2.1-0.4,3.5-2.4,3.2-4.5l-1.2-7.6l-0.2-1.3
			c0,0,0,0,0,0l-0.9-4.3l-0.2-0.5c-1.8-0.9-3.1-1.5-3.8-1.9c-0.7-0.3-1.5-0.7-2.5-1.2c-1.5,1.5-2,3.6-1.5,6.3l1.8-0.3
			c0.2,0,0.3,0.1,0.4,0.3c0,0.2-0.1,0.3-0.3,0.4l-2.1,0.4c-0.2,0-0.3-0.1-0.4-0.3c-0.5-2.3-0.3-4.2,0.5-5.7l-0.7,0.7
			c-0.3,0.7-0.5,1.4-0.4,2.2l1.1,6.8l0.9-0.2c0.7-0.1,1.4,0.3,1.5,1.1L107.4,39.5z M104,36.2l-0.3-1.8c-2.4-0.2-3.8-1.2-4-3.1
			c-0.2-1.7,0.6-2.9,2.3-3.7l-0.4-2.2c-0.1-0.4,0.1-0.7,0.3-0.9l-0.5-3.3c-0.4-2.5,1.2-4.8,3.7-5.3l1.3-0.2c2.4-0.4,4.7,1.2,5.2,3.6
			l0.6,3.2c0.5,0,1,0.3,1.1,0.9l0.4,2.2c3-0.4,4.7,0.5,5.1,2.6c0.4,2.4-1.1,4-4.5,5l0.2,0.9c0,0,0,0,0,0.1l0.1,0.4l0.1,0.7
			c0,0,0,0.1,0,0.1l1.1,6.8c0.4,2.5-1.2,4.8-3.7,5.3l-1.3,0.2c-2.4,0.4-4.7-1.2-5.2-3.6c0,0,0-0.1,0-0.1l-0.6,0.1
			c-0.7,0.1-1.4-0.3-1.5-1.1l-0.9-5c-0.1-0.7,0.3-1.4,1.1-1.5L104,36.2z M108.1,24.1c1.6,0.1,3,0.9,4,2.2l-0.1-0.5c0,0,0,0,0,0
			l-1.2-6.4c-0.4-2.1-2.4-3.4-4.4-3.1l-1.3,0.2c-2.1,0.4-3.5,2.4-3.2,4.5l1,6.2c0,0,0,0,0.1,0c0.3-1,1-1.9,1.9-2.4
			c-1-0.2-1.7-1.2-1.6-2.3c0.1-0.6,0.4-1.1,0.8-1.4c-0.6-0.3-1-1-0.9-1.8c0.1-0.8,0.7-1.4,1.4-1.5l1.3-0.2c0.9-0.2,1.8,0.4,2,1.3
			c0,0,0,0,0,0c0.1,0.6-0.1,1.2-0.5,1.6c0.7,0.2,1.3,0.8,1.4,1.6c0,0,0,0,0,0C109,22.9,108.7,23.7,108.1,24.1z M107.5,29.7
			c0.2,0,0.4-0.1,0.7-0.2c0.7-0.2,1.2-0.7,1.6-1.4c-0.7-0.3-1.4-0.3-2.1-0.1c-0.3,0.1-0.6,0.3-0.9,0.6c0.1,0,0.1,0,0.2,0
			c0.4,0,0.7,0.2,0.7,0.6C107.6,29.4,107.6,29.6,107.5,29.7z M106.3,29.6c0-0.1-0.1-0.1-0.1-0.2c0-0.1,0-0.2,0-0.3
			c-0.1,0.1-0.2,0.3-0.3,0.4C106.1,29.5,106.2,29.6,106.3,29.6z M108.3,30.2c-0.9,0.3-1.9,0.3-2.9-0.2c-0.2-0.1-0.2-0.3-0.2-0.4
			c0.5-1,1.2-1.7,2.1-2c0.9-0.3,1.9-0.3,2.9,0.2c0.2,0.1,0.2,0.3,0.2,0.4C110,29.2,109.3,29.8,108.3,30.2z M105.5,33.2
			c-0.2-0.1-0.2-0.3-0.2-0.4c0.1-0.2,0.3-0.2,0.4-0.2c0.3,0.1,0.5,0.1,0.8-0.2c0.1-0.1,0.3-0.1,0.5,0c0.1,0.1,0.1,0.3,0,0.5
			C106.5,33.3,106,33.4,105.5,33.2z M105.2,38.1c-0.1,0-0.1,0.1-0.1,0.2l0.1,0.6c0,0.1,0.1,0.1,0.2,0.1l1.9-0.3l-0.2-0.9L105.2,38.1
			z M85.9,33.4l-0.2-0.7c0-0.1,0-0.2,0.1-0.3c0.7-0.9,1.5-2.5,2.4-4.8c-0.1,0-0.3-0.1-0.3-0.2c-0.7-1.5-0.2-2.9,1.4-4c0,0,0,0,0,0
			c-0.3-0.6-1-0.7-1.6-0.4C87,23.3,86,24.3,84.8,26l-1.1,2c-0.1,0.2-0.3,0.2-0.4,0.1c-0.2-0.1-0.2-0.3-0.1-0.4l1.1-1.9l-3.4-11
			c-0.7-1.2-1.4-1.6-2.2-1.3c-0.8,0.3-1.3,1-1.4,2.5l1.9,6.2c0.1,0.2,0,0.4-0.2,0.4s-0.4,0-0.4-0.2l-1.9-6.3
			c-0.8-1.1-1.6-1.5-2.4-1.2c-0.8,0.3-1.3,1.1-1.4,2.5c0,0,0,0,0,0.1l1.9,6.1c0.1,0.2,0,0.4-0.2,0.4c-0.2,0.1-0.4,0-0.4-0.2
			l-1.9-6.3c0,0,0,0,0,0c-0.8-1-1.6-1.4-2.3-1.2c-0.7,0.2-1.2,1-1.2,2.4l4,12.2c0.5,1.5,1.5,2.7,2.8,3.4c0.1,0,0.1,0.1,0.1,0.2
			l0.6,1.7l-0.6,0.2L75,34.7c-1.4-0.8-2.5-2.1-3-3.7l-4.1-12.2c0,0,0-0.1,0-0.1c0.1-1.7,0.6-2.7,1.7-3c0.9-0.3,1.8,0.1,2.6,1
			c0.2-1.2,0.8-2,1.8-2.3c1-0.3,1.9,0,2.7,0.9c0.2-1.2,0.8-2,1.8-2.3c1.1-0.4,2.1,0.2,2.9,1.7c0,0,0,0,0,0.1l3.2,10.6
			c1.1-1.5,2-2.4,2.6-2.8c0.9-0.5,2-0.2,2.5,0.7c0.2,0.4,0.3,0.9,0.2,1.4c-1.3,4.1-2.4,6.8-3.5,8.2l0.1,0.5L85.9,33.4z M89.3,24.2
			C88.2,25,87.9,26,88.4,27c0.3-0.8,0.6-1.7,0.9-2.7C89.3,24.3,89.3,24.2,89.3,24.2L89.3,24.2z M79.5,31c-0.4-2.4-2.1-3.8-5.2-4.3
			c-0.2,0-0.3-0.2-0.3-0.4c0-0.2,0.2-0.3,0.4-0.3c3.4,0.5,5.3,2.1,5.8,4.8c0,0.2-0.1,0.3-0.3,0.4C79.7,31.3,79.6,31.2,79.5,31z
			 M89.5,65.7l7.6,0.1l1.6-1.8c0.5-0.5,1.1-0.8,1.8-0.8h13.4c0.8,0,1.5,0.4,2,1l1.3,1.9l9.9,0.2l0.1,0.2h31.3c0.6,0,1,0.5,1,1
			c0,0.6-0.5,1-1,1h-30.6l7.5,23.1h23.2c0.6,0,1,0.5,1,1c0,0.6-0.5,1-1,1l-6.9,0V130c0,0.2-0.1,0.3-0.3,0.3c-0.2,0-0.3-0.1-0.3-0.3
			V93.8h-30.7c-0.6,0-1-0.5-1-1v-7.8c0-0.2-0.1-0.3-0.3-0.3c-0.2,0-0.3,0.1-0.3,0.3v8.8c0,0,0,0,0,0l0.1,24.4H117l1.8,11.8
			c0,0.2-0.1,0.4-0.3,0.4H97.4H61.2c-0.2,0-0.4-0.2-0.3-0.4l0.3-0.9c0.6-1.6,2-2.7,3.7-3l10.2-1.7l1.9-6.8l-0.8,0.2
			c-2.8-9.3-5.2-17.3-7.2-23.9H53.6V130c0,0.2-0.1,0.3-0.3,0.3c-0.2,0-0.3-0.1-0.3-0.3V93.8h-6.8c-0.6,0-1-0.5-1-1c0-0.6,0.5-1,1-1
			h22.1c-4.1-13.5-6.4-21.2-7-23.1H40.4c-0.6,0-1-0.5-1-1c0-0.6,0.5-1,1-1h5.9c-0.1-0.1-0.2-0.2-0.2-0.3l0-2.5c0,0,0-0.1,0-0.1h0
			L40.1,37l31.4,0.1l5.9,26.4h11.8c0.2,0,0.3,0.1,0.3,0.3L89.5,65.7z M98.1,118.2h-2.6v-4.9c0,0,0,0,0-0.1V113l-12.3,2.8l-5.4,1.4
			l-2,6.9h6.7c0.2,0,0.3,0.1,0.3,0.3c0,0.2-0.1,0.3-0.3,0.3h-7.1L65,126.6c-1.4,0.2-2.7,1.2-3.2,2.6l-0.2,0.5h35.4L98.1,118.2z
			 M94.8,112.5l0.7-0.1V92.7V80.8c0-0.2-0.1-0.3-0.3-0.3c-0.2,0-0.3,0.1-0.3,0.3v8.9L93,84.8c-0.1-0.2-0.2-0.3-0.4-0.2
			c-0.2,0.1-0.3,0.2-0.2,0.4l2.4,6.6V112.5z M98.8,118.2l-1,11.5h20.4l-1.7-11.5H98.8z M100.6,126.4c-0.2,0.1-0.4,0-0.4-0.2
			c-0.1-0.2,0-0.4,0.2-0.4c5.9-2.1,10.8-2.1,14.7,0c0.2,0.1,0.2,0.3,0.1,0.4c-0.1,0.2-0.3,0.2-0.4,0.1
			C111.1,124.4,106.3,124.4,100.6,126.4z M133,49.1l-0.2,1.2c1.5-1.3,3.4-2,5.4-2c1.4,0,3,0.3,4.5,1c-0.2-0.3-0.4-0.6-0.5-0.8
			c-0.1-0.1-0.2-0.2-0.3-0.4l0,0c-0.7-0.9-0.9-1.3-1-1.8c-0.1-0.7,0-1.4,0.3-2c0.4-0.9,1.4-1.3,2.2-0.9c0.2,0.1,0.3,0.1,0.4,0.3
			l5.5,4.5c1.6,1.3,2.6,3.3,2.7,5.5l0.3,7.4c0.1,1.7-1.2,3.1-2.8,3.4l-2.2,0.3c0,0,0,0,0,0l-8.1,0c-0.3,0-0.7-0.1-1-0.2
			c-3-0.3-5.8-2.1-7-3.7l-0.2,1.4c-0.1,0.9-0.9,1.6-1.9,1.6h-9c-0.9,0-1.6-0.6-1.8-1.5l-1.5-6.6l-1.6-7c-0.1-0.1-0.1-0.2-0.1-0.3
			c0,0,0-0.1,0-0.1l0,0l0,0c0-0.2,0.2-0.3,0.3-0.4c0.1-0.1,0.3-0.1,0.6-0.2c0.4-0.1,1.1-0.2,1.9-0.2c1.5-0.1,3.5-0.2,6.2-0.2
			c2.3,0,4.5,0.1,6.2,0.4c1.9,0.3,2.8,0.6,2.8,1.2C133.1,48.9,133,49,133,49.1z M138.7,60c-0.8,0.5-1.2,1.2-1.1,2
			c0,0.5,0.1,0.9,0.3,1.2c0.3,0.4,0.7,0.7,1.2,0.7l8,0l2.1-0.3c1.3-0.2,2.3-1.3,2.3-2.7l-0.3-7.4c-0.1-1.9-1-3.7-2.5-5l-2.5-2.1
			c0,0.1-0.1,0.1-0.2,0.1c-1.9,0.4-3-0.6-3.2-2.8c-0.5-0.1-1,0.2-1.2,0.6c-0.2,0.5-0.3,1.1-0.2,1.7c0,0.4,0.2,0.7,0.8,1.5l0,0
			c0.1,0.2,0.2,0.3,0.3,0.4c0.3,0.4,0.8,1,1.4,1.9c0.1,0.2,0,0.5-0.2,0.5l-4.9,0.8c-1.2,0.4-1.7,1-1.7,1.9c0,0.8,0.5,1.5,1.5,2
			c0,0,0,0,0,0h5.5c0.2,0,0.3,0.1,0.3,0.3c0,0.2-0.1,0.3-0.3,0.3h-5.6c0,0-0.1,0-0.1,0c-0.8,0.4-1.2,1-1.2,1.8
			c0,0.9,0.5,1.5,1.4,1.7c0,0,0.1,0,0.1,0h5.2c0.2,0,0.3,0.1,0.3,0.3c0,0.2-0.1,0.3-0.3,0.3H138.7z M143.6,44.4
			c0.3,1.4,1,1.9,2.1,1.7L143.6,44.4z M136.9,51.9c-1.9,1-3.3,3.4-2.2,6.3c0.1,0.4,1.2,1.5,2.7,2.2c0.2-0.2,0.4-0.5,0.6-0.7
			c-0.8-0.4-1.3-1.1-1.3-2.1c0-0.9,0.4-1.6,1.2-2.1c-0.8-0.6-1.3-1.3-1.3-2.2C136.5,52.7,136.7,52.3,136.9,51.9z M116.2,48.5
			c0.4,0.2,1,0.3,1.8,0.5c1.7,0.3,3.9,0.5,6.1,0.5c2.4,0,4.5-0.1,6.1-0.3c0.8-0.1,1.4-0.2,1.8-0.3c0.1,0,0.3-0.1,0.3-0.1
			c-0.1,0-0.2-0.1-0.4-0.1c-0.4-0.1-1-0.3-1.8-0.4c-1.6-0.2-3.8-0.4-6.1-0.4c-2.7,0-4.7,0-6.1,0.1c-0.8,0.1-1.4,0.1-1.8,0.2
			c-0.1,0-0.2,0.1-0.3,0.1C115.9,48.3,116,48.4,116.2,48.5z M131.8,52.8l-0.7,5.4c0,0.2,0.1,0.3,0.3,0.4c0.2,0,0.3-0.1,0.4-0.3
			l0.7-5.4c0-0.2-0.1-0.3-0.3-0.4C132,52.5,131.8,52.7,131.8,52.8z M163.6,24.9v5.5l16.2,0c1.3,0,2.3,1,2.3,2.3v6.7
			c0,1.3-1,2.3-2.3,2.3H155c-1.3,0-2.3-1-2.3-2.3v-6.7c0-1.3,1-2.3,2.3-2.3h4v-5.5h-13.7l-5.8,4.4c-0.2,0.2-0.5,0-0.5-0.3v-4.1h-4.5
			c-1.3,0-2.3-1-2.3-2.3v-6.7c0-1.3,1-2.3,2.3-2.3h33.5c1.3,0,2.3,1,2.3,2.3v6.7c0,1.3-1,2.3-2.3,2.3H163.6z M163.4,24.3l4.7,0
			c0.9,0,1.6-0.7,1.6-1.6v-6.7c0-0.9-0.7-1.6-1.6-1.6h-33.5c-0.9,0-1.6,0.7-1.6,1.6v6.7c0,0.9,0.7,1.6,1.6,1.6h4.8
			c0.2,0,0.3,0.1,0.3,0.3v3.8l5.4-4.1c0.1,0,0.1-0.1,0.2-0.1l14.1,0c0,0,0,0,0.1,0L163.4,24.3C163.3,24.3,163.3,24.3,163.4,24.3z
			 M163,24.9h-3.2v5.8c0,0.2-0.1,0.3-0.3,0.3H155c-0.9,0-1.6,0.7-1.6,1.6v6.7c0,0.9,0.7,1.6,1.6,1.6h24.8c0.9,0,1.6-0.7,1.6-1.6
			v-6.7c0-0.9-0.7-1.6-1.6-1.6h-16.6c-0.2,0-0.3-0.1-0.3-0.3V24.9z M163.3,18.1h-23.7c-0.2,0-0.3-0.1-0.3-0.3c0-0.2,0.1-0.3,0.3-0.3
			h23.7c0.2,0,0.3,0.1,0.3,0.3C163.6,17.9,163.5,18.1,163.3,18.1z M163.3,21.3h-23.7c-0.2,0-0.3-0.1-0.3-0.3c0-0.2,0.1-0.3,0.3-0.3
			h23.7c0.2,0,0.3,0.1,0.3,0.3C163.6,21.2,163.5,21.3,163.3,21.3z M159.8,33c0-0.1,0.1-0.2,0.2-0.2c0.1,0,0.3,0,0.3,0.2l0.7,2.3
			l1.9,0.5c0.1,0,0.1,0.1,0.2,0.2c0,0.1,0,0.3-0.2,0.3l-1.8,0.6l-0.9,1.9c0,0.1-0.1,0.1-0.1,0.1c-0.1,0-0.3,0-0.3-0.2l-0.6-1.9
			l-1.8-0.6c-0.1,0-0.1-0.1-0.2-0.2c0-0.1,0.1-0.3,0.2-0.3l1.9-0.5L159.8,33z M167.6,33c0-0.1,0.1-0.2,0.2-0.2c0.1,0,0.3,0,0.3,0.2
			l0.7,2.3l1.9,0.5c0.1,0,0.1,0.1,0.2,0.2c0,0.1,0,0.3-0.2,0.3l-1.8,0.6l-0.9,1.9c0,0.1-0.1,0.1-0.1,0.1c-0.1,0-0.3,0-0.3-0.2
			l-0.6-1.9l-1.8-0.6c-0.1,0-0.1-0.1-0.2-0.2c0-0.1,0.1-0.3,0.2-0.3l1.9-0.5L167.6,33z M175.4,33c0-0.1,0.1-0.2,0.2-0.2
			c0.1,0,0.3,0,0.3,0.2l0.7,2.3l1.9,0.5c0.1,0,0.1,0.1,0.2,0.2c0,0.1,0,0.3-0.2,0.3l-1.8,0.6l-0.9,1.9c0,0.1-0.1,0.1-0.1,0.1
			c-0.1,0-0.3,0-0.3-0.2l-0.6-1.9l-1.8-0.6c-0.1,0-0.1-0.1-0.2-0.2c0-0.1,0.1-0.3,0.2-0.3l1.9-0.5L175.4,33z M21.4,27.2
			c-1.3,0-2.3-1-2.3-2.3v-6.7c0-1.3,1-2.3,2.3-2.3h33.5c1.3,0,2.3,1,2.3,2.3v6.7c0,1.3-1,2.3-2.3,2.3h-4.5v4.1
			c0,0.3-0.3,0.4-0.5,0.3l-5.8-4.4H21.4z M49.8,30.7v-3.8c0-0.2,0.1-0.3,0.3-0.3h4.8c0.9,0,1.6-0.7,1.6-1.6v-6.7
			c0-0.9-0.7-1.6-1.6-1.6H21.4c-0.9,0-1.6,0.7-1.6,1.6v6.7c0,0.9,0.7,1.6,1.6,1.6h22.8c0.1,0,0.1,0,0.2,0.1L49.8,30.7z M26.8,20.4
			c-0.2,0-0.3-0.1-0.3-0.3s0.1-0.3,0.3-0.3h22.5c0.2,0,0.3,0.1,0.3,0.3s-0.1,0.3-0.3,0.3H26.8z M26.8,23.6c-0.2,0-0.3-0.1-0.3-0.3
			c0-0.2,0.1-0.3,0.3-0.3h22.5c0.2,0,0.3,0.1,0.3,0.3c0,0.2-0.1,0.3-0.3,0.3H26.8z M77,64.1H46.8l0,1.8H77V64.1z M77.6,64.1v1.8
			h11.2l0-1.8H77.6z M58.7,48.5c-1.1,0.5-2,1.8-1.4,3.3c0.1,0.3,2.1,3.4,2.7,3.4c0.6,0,1.3-1.9,1.7-2.8c1-2.3-0.2-3.7-1.7-4l1.1-1.4
			c0.1-0.1,0.1-0.3-0.1-0.5c-0.1-0.1-0.3-0.1-0.5,0.1l-1,1.3l-0.1-1.3c0-0.2-0.2-0.3-0.4-0.3c-0.2,0-0.3,0.2-0.3,0.4l0.1,1.3l-1.1-1
			c-0.1-0.1-0.3-0.1-0.5,0c-0.1,0.1-0.1,0.3,0,0.5L58.7,48.5z"/>
		<path class="st3" d="M58.5,45.1c-2.1,0.3-3.7,1.3-5,2.9c-1.3,1.6-1.7,3.4-1.4,5.4c0.3,2,1.3,3.6,2.9,4.7c1.7,1.2,3.5,1.6,5.6,1.3
			c2.1-0.3,3.7-1.3,5-2.9c1.3-1.6,1.7-3.4,1.4-5.4c-0.3-2-1.3-3.6-2.9-4.7C62.4,45.2,60.5,44.8,58.5,45.1z"/>
		<path class="st4" d="M58.6,46.4c-1.7,0.2-3,1-4,2.3c-1,1.3-1.4,2.8-1.2,4.4c0.2,1.6,1,2.9,2.4,3.9c1.4,1,2.9,1.3,4.5,1.1
			c1.7-0.2,3-1,4-2.3c1-1.3,1.4-2.8,1.2-4.4c-0.2-1.6-1-2.9-2.4-3.9C61.7,46.5,60.2,46.2,58.6,46.4z"/>
		<path class="st3" d="M56.5,50.3l5.2-0.8c0.3,0,0.6,0.2,0.6,0.4l0,0c0,0.3-0.2,0.6-0.4,0.6l-5.2,0.8c-0.3,0-0.6-0.2-0.6-0.4v0
			C56,50.6,56.2,50.4,56.5,50.3z"/>
		<path class="st3" d="M56.7,52.1l1.9-0.3c0.3,0,0.6,0.2,0.6,0.4v0c0,0.3-0.2,0.6-0.4,0.6l-1.9,0.3c-0.3,0-0.6-0.2-0.6-0.4v0
			C56.2,52.4,56.4,52.1,56.7,52.1z"/>
		<path class="st5" d="M60.1,51.6l1.9-0.3c0.3,0,0.6,0.2,0.6,0.4v0c0,0.3-0.2,0.6-0.4,0.6l-1.9,0.3c-0.3,0-0.6-0.2-0.6-0.4v0
			C59.6,51.9,59.8,51.6,60.1,51.6z"/>
		<path class="st3" d="M57,53.8l1-0.2c0.3,0,0.6,0.2,0.6,0.4v0c0,0.3-0.2,0.6-0.4,0.6l-1,0.2c-0.3,0-0.6-0.2-0.6-0.4v0
			C56.5,54.1,56.7,53.9,57,53.8z"/>
		<path class="st5" d="M59.5,53.5l2.7-0.4c0.3,0,0.6,0.2,0.6,0.4v0c0,0.3-0.2,0.6-0.4,0.6l-2.7,0.4c-0.3,0-0.6-0.2-0.6-0.4v0
			C59,53.8,59.2,53.5,59.5,53.5z"/>
	</g>
</g>
</svg>
