<?xml version="1.0" encoding="utf-8"?>
<!-- Generator: Adobe Illustrator 24.3.0, SVG Export Plug-In . SVG Version: 6.00 Build 0)  -->
<svg version="1.1" id="Capa_1" xmlns="http://www.w3.org/2000/svg" xmlns:xlink="http://www.w3.org/1999/xlink" x="0px" y="0px"
	 viewBox="0 0 168.9 116.5" style="enable-background:new 0 0 168.9 116.5;" xml:space="preserve">
<style type="text/css">
	.st0{fill-rule:evenodd;clip-rule:evenodd;fill:#5BCC85;}
	.st1{fill-rule:evenodd;clip-rule:evenodd;fill:#212121;}
	.st2{fill:#FFFFFF;}
	.st3{fill:#051626;}
	.st4{fill:#5BCC85;}
</style>
<path class="st0" d="M109.5,50.8l-21.8-0.7l-5.9-5.5l8.1-2.2l20.9-5.8c0,0,0.1,0,0.1,0c-0.4-0.5-0.9-1-1.4-1.5l-2.3-1.8
	c-0.3-0.2-0.3-0.6-0.1-0.8c0.1-0.2,0.3-0.2,0.6-0.2l5.5,0.9c1.2,0.2,2.5,0.1,3.7-0.4l5.2-1.9c0.3-0.1,0.7,0.1,0.8,0.4
	c0.1,0.2,0,0.4-0.1,0.6l-1.5,2c-0.7,0.9-1.5,1.5-2.5,2l4.9-0.5c0.9-0.1,1.8,0.2,2.5,0.7l0,0l8.2,5l3.1-8.1l11,1l-3.7,31.7
	c-0.2,1.4-1.4,2.3-2.7,2.2c-0.2,0-0.3-0.1-0.5-0.1l-2-0.7l-2.9-1.9l-5.6-9.1c-0.1-0.1-0.3-0.2-0.4-0.1c-0.1,0.1-0.2,0.3-0.1,0.4
	l5.7,9.2c0,0,0.1,0.1,0.1,0.1l1.6,1l5.3,14.6c0.3,0.8-0.1,1.7-0.9,2c-0.1,0-0.2,0.1-0.4,0.1l-10.1,1.1l-17.1-47.7c0,0,0,0,0,0V52
	L109.5,50.8z M107.8,71.7l7.6,2.1l0.2,0.8l3.1,10.7h-8.9L107.8,71.7z M62.6,80.3l-3.6,1L57,78.1l-3-2.2l1.3-3.5l-0.2-3.8l3.6-1.2
	l2.8-2.5l3.1,2.1l3.7,0.6l0.3,3.7l1.8,3.3l-2.7,2.6l-1.4,3.5L62.6,80.3z M60.2,78.6l2.2-0.6l2.3,0.3c0.1,0,0.3-0.1,0.3-0.2l0.9-2.1
	l1.7-1.6c0.1-0.1,0.1-0.2,0.1-0.4l-1.1-2l-0.2-2.3c0-0.1-0.1-0.2-0.2-0.3L63.8,69l-1.9-1.3c-0.1-0.1-0.3-0.1-0.4,0l-1.7,1.5L57.6,70
	c-0.1,0-0.2,0.2-0.2,0.3l0.1,2.3l-0.8,2.2c0,0.1,0,0.3,0.1,0.3l1.9,1.3l1.2,2C59.9,78.6,60.1,78.6,60.2,78.6z M62.3,77.4l-2.1,0.6
	l-1.1-1.8c0,0,0-0.1-0.1-0.1l-1.7-1.2l0.8-2c0,0,0-0.1,0-0.1L58,70.5l2-0.7c0,0,0.1,0,0.1-0.1l1.6-1.4l1.8,1.2c0,0,0.1,0,0.1,0
	l2.1,0.4l0.2,2.1c0,0,0,0.1,0,0.1l1,1.9l-1.5,1.5c0,0-0.1,0.1-0.1,0.1l-0.8,2l-2.1-0.3C62.4,77.4,62.3,77.4,62.3,77.4z M29.6,21.5
	c-0.1-0.3-0.2-0.6-0.3-1L28.9,18c0-0.3,0.2-0.6,0.5-0.7c0,0,0.1,0,0.1,0l7.1,0.7c0.1,0,0.1,0,0.2,0l5.5,0.7c0.3,0,0.6,0.3,0.5,0.7
	c0,0.1,0,0.2-0.1,0.2l-0.6,1.1c-0.7,1.2-1.9,1.9-3.3,2.1l-0.1,0l9.9,4.5c-0.6,0.2-0.9,0.5-1.2,0.8c-0.3,0.4-0.8,0.5-1,2.4l5,4.2
	l13.6,7.4c0.8,0.4,1,1.4,0.6,2.1c-0.1,0.2-0.3,0.4-0.5,0.6L54.3,52c-0.5-0.2-1.1-0.4-1.5-0.6l-32.7,5c3.4-6.5,5.9-11.3,7.6-14.6
	c0,0,0,0,0,0c0,0.1,0.1,0.2,0.2,0.2l11.8,3.5c0.2,0,0.3,0,0.4-0.2c0-0.2,0-0.3-0.2-0.4l-11.8-3.5c-0.1,0-0.2,0-0.3,0.1
	c-1.4-0.6-2.3-1-2.4-1c-0.4-0.2-1.6-5-3.6-14.6c-0.3-1.3,0.5-2.5,1.8-2.8L29.6,21.5z"/>
<path class="st1" d="M58.3,49.4l0.5-0.3l2.1,1.6c0.1,0,0.2,0,0.3,0.1l0.8,1.4l1.1-0.5c0,0,0.1,0,0.1,0c1.1-0.3,2-0.1,2.4,0.7
	c0.3,0.6,0.4,1.2,0.1,1.9c0.7,0,1.2,0.3,1.6,0.8c0.4,0.6,0.4,1.2,0.1,1.8c0.7,0.1,1.2,0.4,1.6,1c0,0,0,0,0,0.1
	c0.5,0.9,0.2,2.1-0.7,2.6l1.4,1c0,0,0,0,0,0c0,0,0,0,0,0l0.1,0c0,0,0.1,0,0.1,0.1c0.1,0,0.2,0.1,0.4,0.2l0,0c1,0.2,1.6,0.1,1.9-0.4
	c0.4-0.5,0.3-1.3-0.4-2.2l-1.8-1.8c-0.1-0.1-0.1-0.3,0-0.4c0.1-0.1,0.3-0.1,0.4,0l1.7,1.8c1.7,0.9,2.9,1,3.4,0.5
	c0.6-0.6,0.6-1.2,0.2-2l-4.2-3.6c-0.1-0.1-0.1-0.3,0-0.4c0.1-0.1,0.3-0.1,0.4,0l4.3,3.7c1.1,0.3,1.9,0.1,2.3-0.5
	c0.4-0.6,0.3-1.3-0.5-2.1c-2-1.6-3.7-3-5.3-4.2c-1,0.1-1.7,0.3-2.1,0.4c-1.4,0.3-2.2,0.5-2.8,0.5c-0.8,0-1.3-0.2-1.7-0.6
	c-0.5-0.6-0.5-1.4,0.1-2.1c0.3-0.4,0.9-0.9,1.6-1.4c-0.8-0.4-1.4-0.7-1.9-0.9c0,0-0.1,0-0.1-0.1L65.1,45l0.2-0.1
	c0.1-0.1,0.2-0.2,0.3-0.3l0.8,0.7c0.6,0.2,1.3,0.5,2.1,1c0,0,0,0,0,0l1.7-0.8c1-0.5,2.1-0.6,3.1-0.3c0.3-1.7,0.5-3.5,0.6-5.3
	c0.2-1.9-0.3-4.4-1.4-7.5c-0.4-1.2-1.1-2.2-1.9-3c-0.1,0.6-0.4,1.2-1,1.5c-0.3,0.2-0.6,0.3-1,0.3c-0.8,0.1-1.6-0.1-2.2-0.7
	c-0.3,0.8-0.9,1.3-1.7,1.4c-0.8,0.1-1.5-0.2-2-0.8c-0.4,0.8-1,1.3-1.8,1.4c-1.1,0.2-1.9-0.4-2.5-1.7c0,0,0,0,0,0l-1.1-3.4l-2.3,0.1
	h-6.3c0,0,0,0,0,0l-10-4.6c1.2-0.3,2.3-1,3.1-2l0.8-1.1c0.1-0.1,0.1-0.2,0.1-0.3c0-0.3-0.2-0.6-0.5-0.7l-1.4-0.2l0-2.8
	c-0.7,0-1.3-0.2-1.6-0.6c-0.1-0.1-0.1-0.3,0-0.4c0.1-0.1,0.3-0.1,0.4,0c0.3,0.3,0.7,0.4,1.2,0.4l0-0.6c0-0.2,0.2-0.3,0.3-0.3
	l2.1,0.2l-1.1-3.3c-0.4-1.2-1.3-2.2-2.4-2.8c-0.4,0.9-0.8,1.5-1.1,1.9c0.3,0,0.6,0.1,0.8,0.2c0.8,0.3,1.5,0.9,1.9,1.9
	c0.1,0.1,0,0.3-0.1,0.4c-0.9,0.4-1.8,0.5-2.7,0.2c-0.6-0.2-1-0.5-1.4-1c-0.3,0.2-0.6,0.3-1,0.5c-0.3-0.6-0.9-1.1-1.6-1.2
	c-0.8-0.1-1.5,0.3-1.9,1l-1.1,5.3l-1.9-0.2c0,0-0.1,0-0.1,0c-0.3,0-0.6,0.4-0.5,0.7l0.4,2.5c0.1,0.3,0.2,0.7,0.3,1L23.6,23
	c-1.3,0.3-2,1.6-1.8,2.8c2,9.5,3.2,14.4,3.6,14.6c0.1,0,0.9,0.4,2.4,1c0.1,0,0.1,0,0.2,0c-0.1,0-0.2,0.1-0.3,0.2
	c0,0.2,0,0.3,0.2,0.4l11.9,3.6c0,0,0,0,0,0c0,0-0.1,0-0.1,0L27.9,42c-0.1,0-0.1-0.1-0.2-0.1l-7.6,14.5L9.5,58L1.7,7.1L32.5,10
	l0.2-0.8c0,0,0-0.1,0-0.1L0.7,6l7.9,53.5l40.5-6.5C46.9,60.3,45,68,44.9,73.8c-0.1,5.2,0.3,9.3,1.2,12.3c0.1,0,0.1,0.1,0.1,0.2
	l4,13.7l14.1-3.7l10.6-4.6c-0.5-1-0.9-2-1.3-2.9c0,0.3-0.1,0.5-0.3,0.7c-0.3,0.3-0.8,0.2-1-0.1l-6.5-8.5l0.5,0.1l1.4-3.5l2.6-2.5
	l7.9,8c0.2,0.2,0.2,0.4,0.2,0.7c-0.1,0.4-0.5,0.7-0.9,0.6l-5-0.9l0.6,3c0.7,1.7,1.6,3.6,2.5,5.5c0.1,0.2,0,0.3-0.2,0.4l-10.9,4.7
	c0,0,0,0,0,0l-14.4,3.8c-0.2,0-0.3,0-0.4-0.2l-4.1-13.9c0-0.1,0-0.1,0-0.2L4.6,90.1c-0.2-3,2-5.6,5-5.9l15.7-1.5c0.1,0,0.1,0,0.2,0
	l17.4-1.6c0.2,0,0.3-0.2,0.3-0.3c0-0.2-0.2-0.3-0.3-0.3l-16.8,1.6l3.5-25.3l-21,3.3c-0.2,0-0.3-0.1-0.3-0.3L0,5.8
	c0-0.2,0.1-0.4,0.3-0.3l32.6,3.1c0.4-0.7,1.1-1.2,1.9-1.4C34,6.7,33.7,5.7,34,4.8c0.2-0.4,0.5-0.8,0.9-1c-0.6-0.4-0.8-1.2-0.5-1.9
	c0.3-0.7,0.9-1.1,1.6-1L37.2,1c0.8,0.1,1.5,0.8,1.4,1.6c0,0,0,0,0,0c0,0.5-0.3,1-0.7,1.2c0.7,0.3,1.1,1,1.1,1.8c0,0,0,0,0,0
	c0,0.7-0.4,1.2-0.9,1.5c1.5,0.2,2.9,1,3.8,2.2l25,2.4c0.1,0,0.2,0.1,0.3,0.3l1.4,9.1c0.5,0.4,0.8,0.9,0.9,1.5l1.1,5.8
	c1.1,0.9,2,2.2,2.5,3.7c1.2,3.2,1.7,5.8,1.5,7.8c-0.2,1.9-0.4,3.7-0.7,5.4c0.5,0.2,1,0.5,1.4,0.9c0.1,0.1,0.2,0.2,0.3,0.3l6.2-1.5
	l-0.1-0.4l33,7.4l0,0v0l5.5-0.1l11.6,32.4l7.6-0.9l7.5,23.2c0,0.1,0.1,0.3,0.1,0.4c0,0.5-0.3,1-0.7,1.2l2.7,7.9
	c0.1,0.2-0.1,0.4-0.3,0.4h-32.2c-0.2,0-0.4-0.2-0.3-0.4l0.4-1c0.5-1.3,1.7-2.3,3.1-2.7l5.8-1.4v-2.7c-0.4-0.2-0.6-0.5-0.7-0.9
	l-9.3-32.8c0.1,0.1,0.2,0.1,0.3,0.1c0.2,0,0.2-0.2,0.2-0.4l-1-3.5c0-0.2-0.2-0.2-0.4-0.2c-0.2,0-0.2,0.2-0.2,0.4l0.8,2.9l-7.5-2.1
	l1.9,13.3c0,0.1,0,0.2,0,0.3c0,0.9-0.5,1.6-1.2,2l2.3,7.2c0.1,0.2,0,0.3-0.2,0.4l-28.8,7.7c-0.2,0.1-0.4-0.1-0.4-0.3l0.2-1.7
	c0.1-1,0.6-2,1.3-2.7l7.2-7v-3.5c-0.7-0.3-1.2-0.9-1.3-1.7l-5.4-31.9l-2.2,0.5c-0.2,0.4-0.8,0.9-1.7,1.5c0,0.3-0.1,0.5-0.3,0.8
	c-0.5,0.7-1.3,1-2.4,0.8c0.2,0.8,0.1,1.5-0.6,2.2c-0.7,0.7-1.7,0.7-3.3,0c0.4,0.8,0.4,1.5,0,2.1c-0.5,0.7-1.4,0.9-2.6,0.7
	c-0.1,0.2-0.1,0.5-0.1,0.6c-0.5,1.9-0.7,3-1,4.1c-0.3,1.4-0.5,2.6-0.6,3.6l-0.2-2.5c0.1-0.4,0.2-0.8,0.3-1.3c0.2-1.1,0.5-2.2,1-4.1
	c0-0.1,0.1-0.4,0.2-0.6l-1.8-1.3l-2.1,1.3c0,0-0.1,0-0.1,0.1c-1,0.5-2.3,0.1-2.8-0.9c0,0,0,0,0-0.1c-0.3-0.5-0.4-1-0.3-1.6
	c-0.7,0-1.2-0.3-1.5-1c-0.3-0.6-0.4-1.2-0.1-1.7c-0.5,0-1-0.3-1.4-0.9c-0.4-0.6-0.6-1.4-0.4-2.4c0.1-0.5,0.3-1,0.5-1.4l0.8-1.2
	L58.3,49.4z M46.8,30.8c0.2-0.5,0.4-1,0.6-1.4c0.6-0.9,1.4-1.3,2.4-1c3.3,0.8,5.5,4.3,5.5,8.4l-0.6-0.3c-0.1-2.1-0.8-4-1.9-5.4
	l-1.1,0.1c0.3,0.3,0.6,0.8,0.7,1.3c0.1,0.7,0.1,1.6-0.2,2.6l-0.5-0.3l0,0c0.2-0.9,0.3-1.7,0.2-2.2c-0.2-0.9-0.6-1.3-1.6-1.4l0,0
	c0,0,0,0,0,0c0,0,0,0,0,0c0,0-0.1,0.1-0.1,0.2c-0.1,0.2-0.3,0.5-0.4,0.9c-0.1,0.2-0.2,0.4-0.3,0.7l-0.5-0.4c0.1-0.2,0.1-0.4,0.2-0.5
	c0.4-0.9,0.7-1.4,1.1-1.4c0,0,0,0,0.1,0l2.1-0.1c-0.7-0.7-1.6-1.2-2.6-1.5c-1-0.2-1.8,0.5-2.3,2.2L46.8,30.8z M63.1,80.4l-5,12.9
	c-0.1,0.2-0.3,0.4-0.5,0.4c-0.4,0.1-0.8-0.1-0.9-0.5L55,87.4l-4.9,3.9c-0.2,0.2-0.6,0.2-0.8,0.1c-0.4-0.2-0.5-0.7-0.3-1l7.1-13
	l1.1,0.8l1.9,3.2l3.6-1L63.1,80.4z M83.3,53.3L82,45.6l-6.3,1.6c-0.1,0-0.2,0-0.3-0.1c-0.2-0.1-0.3-0.3-0.5-0.4
	c-0.3-0.3-0.7-0.6-1.1-0.7c0,0,0,0,0,0l-0.4-0.2c-1-0.3-2-0.3-3,0.2l-0.6,0.3c0,0,0,0-0.1,0c-2.8,1.6-3.7,2.9-3,3.6
	c0.5,0.6,1.3,0.5,3.9-0.1c0.5-0.1,1.5-0.3,2.9-0.5c0.2,0,0.3,0.1,0.3,0.3c0,0.1-0.1,0.3-0.2,0.3c1.4,1.1,3.1,2.4,4.8,3.8
	c0,0,0,0,0,0c0.4,0.5,0.7,0.9,0.8,1.4c0.8-0.5,1.2-0.9,1.3-1.2c0-0.1,0.1-0.2,0.2-0.2L83.3,53.3z M67.9,20.7l-1.3-8.3L42.3,10
	c0.2,0.3,0.3,0.6,0.4,0.9l22.9,2.1l1.2,7.4C67.1,20.5,67.5,20.5,67.9,20.7z M10.3,11.1c0,0,0.1,0.9-0.7,2.1c-0.2,0.2-0.6,0.6-1.3,1
	c0.6,0.4,1,0.8,1.3,1.2c0.3,0.4,0.6,1,1,1.8c0.1-1,0.3-1.6,0.6-2c0.2-0.4,0.7-0.7,1.4-1c-0.7-0.6-1.2-1-1.4-1.3
	C10.3,11.9,10.3,11.1,10.3,11.1z M21.3,14c0,0,0.2,0.8-0.4,2.2c-0.1,0.3-0.5,0.6-1.2,1.1c0.6,0.4,1.1,0.7,1.4,1
	c0.3,0.3,0.7,0.9,1.2,1.7c0-1,0.1-1.7,0.3-2.1c0.2-0.4,0.6-0.8,1.2-1.1c-0.8-0.5-1.3-0.9-1.5-1.1C21.4,14.7,21.3,14,21.3,14z
	 M51.7,15.7c0,0,0,0.9-1.1,2.2c-0.2,0.2-0.7,0.5-1.5,0.8c0.6,0.6,1,1.1,1.2,1.5c0.2,0.4,0.5,1.1,0.8,2.1c0.3-1,0.6-1.7,0.9-2.1
	c0.3-0.4,0.9-0.6,1.6-0.8c-0.7-0.7-1.1-1.3-1.3-1.6C51.6,16.5,51.7,15.7,51.7,15.7z M15.1,25.1c0,0,0.2,0.9-0.5,2.4
	c-0.1,0.3-0.6,0.7-1.3,1.2c0.7,0.4,1.2,0.8,1.6,1.1c0.3,0.3,0.8,1,1.3,1.9c0-1.1,0.1-1.8,0.3-2.3c0.2-0.4,0.7-0.8,1.4-1.2
	c-0.9-0.5-1.4-0.9-1.7-1.2C15.2,25.9,15.1,25.1,15.1,25.1z M14.8,38.9c0,0,0.2,0.9-0.5,2.4c-0.1,0.3-0.6,0.7-1.3,1.2
	c0.7,0.4,1.2,0.8,1.6,1.1c0.3,0.3,0.8,1,1.3,1.9c0-1.1,0.1-1.8,0.3-2.3c0.2-0.4,0.7-0.8,1.4-1.2c-0.9-0.5-1.4-0.9-1.7-1.2
	C14.9,39.7,14.8,38.9,14.8,38.9z M40.5,11.9c-0.1,0.3-0.3,0.5-0.6,0.5c-0.3,0-0.6-0.3-0.5-0.7c0-0.2,0.2-0.4,0.3-0.5
	c-0.1-0.1-0.2-0.1-0.3-0.2c-0.6-0.2-1.2-0.2-1.9,0.1c0.3,0.6,0.8,1.1,1.4,1.3c0.6,0.2,1.2,0.2,1.9-0.1C40.6,12.1,40.5,12,40.5,11.9z
	 M61.6,22.9l1.2,7.2c0,0,0,0,0.1,0.1c0.4,0.8,1,1.1,1.8,1c0.8-0.1,1.2-0.6,1.4-1.4c0,0,0-0.1,0-0.1l-1.3-7.3c0,0,0,0,0,0
	c-0.4-0.7-0.9-1-1.7-0.8C62.2,21.7,61.7,22.2,61.6,22.9z M61,23.1C61,23.1,61,23.1,61,23.1c-0.3-0.7-0.8-1-1.7-0.9
	c-0.8,0.1-1.6,0.6-2.4,1.6c-0.1,0.2-0.3,0.4-0.4,0.6l-0.8,2l1.5-0.2c0.1,0,0.3,0.1,0.3,0.2l1.3,4c0.5,1,1.1,1.4,1.8,1.3
	c0.7-0.1,1.2-0.6,1.5-1.3L61,23.1z M65.3,22.2l1.3,7.6c0.5,0.6,1.2,0.9,1.9,0.8c0.3,0,0.6-0.1,0.8-0.2c0.5-0.3,0.8-0.9,0.7-1.4
	l-1.1-6.2c-0.2-1-1.1-1.7-2.1-1.6C66.1,21.2,65.7,21.5,65.3,22.2z M68.9,28.3c-0.1-0.3-0.3-0.5-0.8-0.4c-0.5,0.1-0.7,0.3-0.6,0.6
	c0,0.2-0.1,0.3-0.3,0.3c-0.2,0-0.3-0.1-0.3-0.3c-0.1-0.7,0.3-1.1,1.1-1.2c0.8-0.1,1.3,0.1,1.5,0.8c0,0.2,0,0.3-0.2,0.4
	C69.1,28.6,69,28.5,68.9,28.3z M64.9,28.9c-0.1-0.3-0.3-0.5-0.8-0.4c-0.5,0.1-0.7,0.3-0.6,0.6c0,0.2-0.1,0.3-0.3,0.3
	c-0.2,0-0.3-0.1-0.3-0.3c-0.1-0.7,0.3-1.1,1.1-1.2c0.8-0.1,1.3,0.1,1.5,0.8c0,0.2,0,0.3-0.2,0.4C65.2,29.1,65,29,64.9,28.9z
	 M61.1,29.5c-0.1-0.3-0.3-0.5-0.8-0.4c-0.5,0.1-0.7,0.3-0.6,0.6c0,0.2-0.1,0.3-0.3,0.3c-0.2,0-0.3-0.1-0.3-0.3
	c-0.1-0.7,0.3-1.1,1.1-1.2c0.8-0.1,1.3,0.1,1.5,0.8c0,0.2,0,0.3-0.2,0.4C61.3,29.8,61.2,29.7,61.1,29.5z M61.7,56.8
	c-0.4,0.5-0.4,1-0.1,1.6c0.3,0.5,0.6,0.7,1.1,0.7c0,0,0,0,0,0l4-1.9c0,0,0-0.1,0.1-0.1c0.5-0.6,0.5-1.1,0.2-1.6
	c-0.3-0.4-0.7-0.6-1.2-0.6L61.7,56.8z M61.5,56.2l3.5-1.7c0,0,0,0,0-0.1c0.4-0.7,0.4-1.3,0.1-1.8c-0.3-0.5-0.9-0.7-1.8-0.4
	c0,0,0,0,0,0L62,52.8c-0.1,0.1-0.3,0-0.4-0.1l-0.7-1.2l-0.8,1.1c-0.2,0.3-0.4,0.7-0.4,1.1c-0.1,0.8,0,1.5,0.3,2
	C60.4,56.2,60.9,56.4,61.5,56.2C61.5,56.2,61.5,56.2,61.5,56.2z M63.4,59.3C63.4,59.4,63.4,59.4,63.4,59.3c-0.3,0.7-0.3,1.2,0,1.6
	c0,0,0.1,0.1,0.1,0.1c0.4,0.7,1.2,1,2,0.6c0,0,0,0,0.1,0l2.7-1.6c0.6-0.4,0.8-1.2,0.5-1.8c0,0,0,0,0-0.1c-0.3-0.5-0.8-0.7-1.4-0.8
	c0,0,0,0,0,0L63.4,59.3z M110,32.7v-5l-0.8,0c-0.2,0-0.4-0.3-0.2-0.4c0.3-0.6,0.7-1.1,1-1.6v-4.2c0,0,0-0.1,0-0.1l-0.1-3.8l3.7,0.9
	c0,0,0.1,0,0.1,0l4.9-1.2v5.1l0.2,3.3c0.1,0,0.2,0,0.3,0c1.2,0,2.2,1.2,2.2,2.5c0,1.3-1,2.4-2.2,2.4l0.1,1.4l-0.6,0.2l0,0l-0.1-2
	c0-0.2,0.2-0.3,0.3-0.3c0.1,0,0.1,0,0.2,0c0.9,0,1.6-0.8,1.6-1.9c0-1.1-0.7-1.9-1.6-1.9c-0.2,0-0.3,0-0.5,0.1
	c-0.2,0.1-0.4-0.1-0.4-0.3l-0.1-2.1l-5.6-0.7c-1.1,1.2-2,2.4-2.9,3.8l3.3,0.1c0.2,0,0.3,0.1,0.3,0.3c0,0.2-0.1,0.3-0.3,0.3l-2.4-0.1
	v5.1L110,32.7z M111.8,23.2l-1.2,0.5v1C111,24.2,111.4,23.7,111.8,23.2z M113.7,25c0.2,0.1,0.4,0.3,0.3,0.6c0,0.3-0.3,0.6-0.6,0.5
	c0,0,0,0-0.1,0c0,0,0.1,0,0.1,0c0.4,0,0.8,0,1.2,0c0.4-0.1,0.8-0.2,1.2-0.3c0.2-0.1,0.3-0.2,0.3-0.4c0-0.3-0.2-0.5-0.5-0.6
	c-0.4,0-0.8,0-1.2,0C114.2,24.9,114,24.9,113.7,25z M113.4,26.8c-0.6-0.1-1.1-0.6-1-1.2c0-0.4,0.3-0.8,0.7-0.9
	c0.4-0.2,0.8-0.3,1.3-0.4c0.5-0.1,0.9-0.1,1.3,0c0.6,0.1,1.1,0.6,1,1.2c0,0.4-0.3,0.8-0.7,0.9c-0.4,0.2-0.8,0.3-1.3,0.4
	C114.3,26.8,113.9,26.8,113.4,26.8z M111.9,28.6c-0.1-0.1-0.2-0.3-0.1-0.4c0.1-0.1,0.3-0.2,0.4-0.1c0.3,0.2,0.7,0.2,1.2,0
	c0.2-0.1,0.3,0,0.4,0.2c0.1,0.2,0,0.3-0.2,0.4C113,28.9,112.4,28.9,111.9,28.6z M118.7,16.6C118.7,16.6,118.6,16.6,118.7,16.6
	l-5,1.2l-4-1c-0.1,0-0.1,0-0.2,0l-6.2-1.6c-0.2-0.1-0.3-0.3-0.3-0.5c0-0.1,0.1-0.2,0.3-0.3c3.6-0.9,7.1-1.7,10.7-2.6
	c3.7,0.6,7.3,1.2,11,1.9c0.2,0,0.3,0.2,0.3,0.4c0,0.1-0.1,0.2-0.2,0.3l-1.3,0.5l-0.5,5.1c0.2,0.1,0.3,0.2,0.4,0.3
	c0.1,0.1,0.1,0.4,0.1,0.5c0,0.2-0.1,0.4-0.3,0.6c0,0.1-0.1,0.1-0.2,0.2c0.2,0.1,0.2,0.4,0.3,0.7l0.7,3.5c-0.4,0-0.7,0-0.7,0
	c-0.1-0.3-0.1-0.7-0.2-1c0-0.1-0.1-0.1-0.1-0.1c-0.1,0-0.2,0.1-0.2,0.1l-0.1,0.9l-0.6,0l0.1-0.8c0-0.1,0-0.1-0.1-0.2
	c-0.1,0-0.2,0-0.2,0.1l-0.3,0.8l-0.5,0c0.4-1.8,0.7-2.9,0.7-3.4c0-0.4,0.1-0.6,0.3-0.7c-0.2-0.1-0.3-0.3-0.3-0.7
	c0-0.2,0.1-0.4,0.2-0.5c0.1-0.1,0.2-0.2,0.3-0.3l0.5-4.9L118.7,16.6L118.7,16.6z M152.2,24.7c0.2,0.5,0.2,1,0.1,1.5
	c-0.2,0.6-0.6,1-1.2,1.2c0.4,0.5,0.5,1.2,0.1,1.9c-0.3,0.6-0.7,1-1.3,1.2c0.3,0.4,0.4,1,0.2,1.7c-0.2,0.6-0.7,1.2-1.4,1.7
	c-0.6,0.4-1.2,0.5-1.9,0.5l-3.1-0.3l3.2,3.3c0.6,0.6,1.1,1.4,1.5,2.2l0.1,0.2c0.2,0.4,0,0.8-0.4,1c-0.2,0.1-0.3,0.1-0.5,0
	c-3.7-1-6.6-1.9-8.7-2.7c-2.3-0.8-4.8-2-7.5-3.7c-0.3-0.2-0.4-0.6-0.2-0.9c0,0,0.1-0.1,0.1-0.1c0.4-0.4,0.9-0.6,1.5-0.6l5.4-0.2
	l2.8-8.2c-3.4-1.8-5.2-4.3-5.4-7.3c-0.1-1.1,0-2.5,0.1-4.3c-1.3,1-3.2,1.1-5.2,0.6c-2.1-0.6-4.1-1.9-5-3.3c-1-1.7-0.8-3.7,0.6-5.5
	c1-1.4,2.6-2.5,4.1-3c1.5-0.4,3.1-0.2,4.7,0.7c0.9,0.5,1.7,1.1,2.2,1.8c0.1-0.5,0.2-1,0.3-1.6c0,0.1,0.1,0.2,0.2,0.2l12,2.9
	c4.9,1.9,8.6,3,11.3,3.4c-0.2,0.6-0.4,1.2-0.6,1.8c0.3-0.1,0.6-0.2,0.8-0.3c1.5-0.4,3.1-0.2,4.7,0.7c1.3,0.7,2.3,1.7,2.8,2.6
	c0.4,1,0.6,1.9,0.6,3c-0.1,1.4-0.6,2.8-1.6,4.1c-1.3,1.7-3.6,2.2-6.1,1.5c-2-0.5-3.8-1.7-4.8-3.1c-0.7,1.4-1.5,2.6-2.2,3.5
	C153.8,23.2,153.1,23.9,152.2,24.7z M143,26.5c0,0.2,0.1,0.4,0.2,0.6c0.1,0.2,0.2,0.3,0.4,0.4c0,0,0,0,0,0l5.8,2.4
	c0.7,0,1.1-0.3,1.4-0.9c0.3-0.6,0.2-1.1-0.3-1.5c0,0,0,0,0,0c0,0,0,0,0,0l-5.9-2.3c0,0,0,0,0,0c-0.7,0-1.2,0.2-1.4,0.8
	C143,26.1,142.9,26.3,143,26.5z M144,32l-0.5,1.3l3.2,0.3c0.5,0,1.1-0.1,1.5-0.4c0.6-0.4,1-0.8,1.2-1.3c0.2-0.7,0.1-1.2-0.4-1.5
	c0,0,0,0,0,0l-5.7-2.3c-0.7,0.1-1.2,0.4-1.4,1c-0.2,0.6,0,1.1,0.7,1.7c0,0,0,0,0,0l1.3,0.7c0.1,0.1,0.2,0.3,0.1,0.4L144,32z
	 M137.3,2c0-0.2,0.1-0.5,0.1-0.7c0.2-0.8,1-1.4,1.9-1.2c0,0,0.1,0,0.1,0l20.5,5.7c0.8,0.2,1.3,1.1,1.1,1.9c0,0,0,0.1,0,0.1
	c0,0.1-0.1,0.3-0.1,0.4c-2.6-0.4-6.4-1.5-11.3-3.4c0,0,0,0,0,0l-12-2.9C137.4,1.8,137.3,1.9,137.3,2z M164.9,15.1
	C164.9,15,164.9,15,164.9,15.1c-0.1-0.2-0.2-0.2-0.3-0.3c-0.2-0.2-0.5-0.4-0.8-0.6c-0.7-0.4-1.4-0.5-1.9-0.4
	c-0.7,0.2-1.6,0.9-2.2,1.6c-0.5,0.7-0.6,1.1-0.4,1.4c0.4,0.6,1.6,1.4,2.8,1.7c1.1,0.3,2,0.2,2.2-0.1c0.6-0.7,0.8-1.4,0.9-2.1
	C165.2,15.9,165.1,15.5,164.9,15.1C164.9,15.1,164.9,15.1,164.9,15.1z M134.1,6.2C134,6.1,134,6.1,134.1,6.2
	c-0.1-0.2-0.2-0.2-0.3-0.3c-0.2-0.2-0.5-0.4-0.8-0.6c-0.7-0.4-1.4-0.5-1.9-0.4c-0.7,0.2-1.6,0.9-2.2,1.6c-0.5,0.7-0.6,1.1-0.4,1.4
	c0.4,0.6,1.6,1.4,2.8,1.7c1.1,0.3,2,0.2,2.2-0.1c0.6-0.7,0.8-1.4,0.8-2.1C134.3,7,134.3,6.6,134.1,6.2
	C134.1,6.2,134.1,6.2,134.1,6.2z M150.6,26.9c0.6-0.2,1-0.5,1.1-0.9c0.2-0.8-0.2-1.7-0.9-2l-4.7-2c-0.7-0.3-1.5,0-1.8,0.7
	c0,0,0,0,0,0.1c0,0,0,0,0,0c-0.2,0.6-0.1,1.2,0.3,1.7c0,0,0,0,0,0L150.6,26.9C150.6,26.9,150.6,26.9,150.6,26.9z M145.8,108.4
	C145.8,108.4,145.7,108.4,145.8,108.4l-19.6,0v2.5h4.7c0.2,0,0.3,0.1,0.3,0.3s-0.1,0.3-0.3,0.3h-5l-6,1.5c-1.2,0.3-2.2,1.2-2.6,2.3
	l-0.2,0.6h31.3L145.8,108.4z M90.8,87.6v3.5c0,0.1,0,0.2-0.1,0.2l-7.3,7.1c-0.6,0.6-1,1.4-1.1,2.3l-0.1,1.3l28.1-7.5l-2.2-6.9
	c-0.2,0-0.3,0.1-0.5,0.1H91.1C91,87.6,90.9,87.6,90.8,87.6z"/>
<path class="st2" d="M148.4,7.8c-1.9-0.5-3.6-0.4-5.3,0.5c-1.7,0.9-2.8,2.2-3.3,4c-0.5,1.8-0.3,3.5,0.6,5.1c0.9,1.6,2.3,2.7,4.2,3.2
	c1.8,0.5,3.6,0.4,5.3-0.5c1.7-0.9,2.8-2.2,3.3-4c0.5-1.8,0.3-3.5-0.6-5.1C151.6,9.4,150.2,8.3,148.4,7.8z"/>
<path class="st3" d="M148,8.9c-1.5-0.4-2.9-0.3-4.3,0.4c-1.4,0.7-2.2,1.8-2.7,3.2c-0.4,1.4-0.2,2.8,0.5,4.1s1.9,2.2,3.4,2.6
	c1.5,0.4,2.9,0.3,4.3-0.4c1.4-0.7,2.2-1.8,2.7-3.2s0.2-2.8-0.5-4.1C150.6,10.3,149.4,9.4,148,8.9z"/>
<path class="st2" d="M144.7,11.4l4.6,1.3c0.3,0.1,0.4,0.3,0.3,0.6v0c-0.1,0.3-0.3,0.4-0.6,0.3l-4.6-1.3c-0.3-0.1-0.4-0.3-0.3-0.6v0
	C144.2,11.5,144.5,11.3,144.7,11.4z"/>
<path class="st2" d="M144.3,13l1.7,0.5c0.3,0.1,0.4,0.3,0.3,0.6v0c-0.1,0.3-0.3,0.4-0.6,0.3l-1.7-0.5c-0.3-0.1-0.4-0.3-0.3-0.6v0
	C143.7,13.1,144,12.9,144.3,13z"/>
<path class="st4" d="M147.2,13.8l1.7,0.5c0.3,0.1,0.4,0.3,0.3,0.6v0c-0.1,0.3-0.3,0.4-0.6,0.3l-1.7-0.5c-0.3-0.1-0.4-0.3-0.3-0.6v0
	C146.7,13.9,147,13.8,147.2,13.8z"/>
<path class="st2" d="M143.8,14.6l0.9,0.3c0.3,0.1,0.4,0.3,0.3,0.6l0,0c-0.1,0.3-0.3,0.4-0.6,0.3l-0.9-0.3c-0.3-0.1-0.4-0.3-0.3-0.6
	l0,0C143.3,14.6,143.5,14.5,143.8,14.6z"/>
<path class="st4" d="M146,15.2l2.4,0.7c0.3,0.1,0.4,0.3,0.3,0.6l0,0c-0.1,0.3-0.3,0.4-0.6,0.3l-2.4-0.7c-0.3-0.1-0.4-0.3-0.3-0.6v0
	C145.5,15.3,145.8,15.1,146,15.2z"/>
</svg>
