<?xml version="1.0" encoding="utf-8"?>
<!-- Generator: Adobe Illustrator 19.1.0, SVG Export Plug-In . SVG Version: 6.00 Build 0)  -->
<svg version="1.1" id="Layer_1" xmlns="http://www.w3.org/2000/svg" xmlns:xlink="http://www.w3.org/1999/xlink" x="0px" y="0px"
	 width="400px" height="270px" viewBox="65 0 400 270" style="enable-background:new 65 0 400 270;" xml:space="preserve">
<style type="text/css">
	.st0{fill:#05526A;stroke:#05526A;stroke-miterlimit:10;}
	.st1{opacity:0.6;fill:#EBEBEB;enable-background:new    ;}
	.st2{opacity:0.3;fill:#EBEBEB;enable-background:new    ;}
	.st3{fill:#ECECEC;}
	.st4{fill:#CFD5D8;}
	.st5{fill:#CED4D6;}
</style>
<rect x="65" class="st0" width="400" height="29.5"/>
<path class="st1" d="M448.6,21.4h-25.5c-1.1,0-2-0.9-2-2v-9.2c0-1.1,0.9-2,2-2h25.5c1.1,0,2,0.9,2,2v9.2
	C450.6,20.5,449.7,21.4,448.6,21.4z"/>
<path class="st2" d="M108.7,18.9H82.4c-1.1,0-2-0.9-2-2v-4.4c0-1.1,0.9-2,2-2h26.3c1.1,0,2,0.9,2,2v4.4
	C110.7,18,109.8,18.9,108.7,18.9z"/>
<path class="st2" d="M148.7,18.9h-26.3c-1.1,0-2-0.9-2-2v-4.4c0-1.1,0.9-2,2-2h26.3c1.1,0,2,0.9,2,2v4.4
	C150.7,18,149.8,18.9,148.7,18.9z"/>
<path class="st2" d="M188.7,18.9h-26.3c-1.1,0-2-0.9-2-2v-4.4c0-1.1,0.9-2,2-2h26.3c1.1,0,2,0.9,2,2v4.4
	C190.7,18,189.8,18.9,188.7,18.9z"/>
<path class="st2" d="M408.7,18.9h-26.3c-1.1,0-2-0.9-2-2v-4.4c0-1.1,0.9-2,2-2h26.3c1.1,0,2,0.9,2,2v4.4
	C410.7,18,409.8,18.9,408.7,18.9z"/>
<rect x="65" y="74" class="st3" width="400" height="29.5"/>
<path class="st4" d="M128.7,92.9h-26.3c-1.1,0-2-0.9-2-2v-4.4c0-1.1,0.9-2,2-2h26.3c1.1,0,2,0.9,2,2v4.4
	C130.7,92,129.8,92.9,128.7,92.9z"/>
<path class="st4" d="M188.7,92.9h-26.3c-1.1,0-2-0.9-2-2v-4.4c0-1.1,0.9-2,2-2h26.3c1.1,0,2,0.9,2,2v4.4
	C190.7,92,189.8,92.9,188.7,92.9z"/>
<path class="st4" d="M248.7,92.9h-26.3c-1.1,0-2-0.9-2-2v-4.4c0-1.1,0.9-2,2-2h26.3c1.1,0,2,0.9,2,2v4.4
	C250.7,92,249.8,92.9,248.7,92.9z"/>
<path class="st4" d="M428.6,92.9h-26.3c-1.1,0-2-0.9-2-2v-4.4c0-1.1,0.9-2,2-2h26.3c1.1,0,2,0.9,2,2v4.4
	C430.6,92,429.7,92.9,428.6,92.9z"/>
<path class="st4" d="M308.6,92.9h-26.3c-1.1,0-2-0.9-2-2v-4.4c0-1.1,0.9-2,2-2h26.3c1.1,0,2,0.9,2,2v4.4
	C310.6,92,309.7,92.9,308.6,92.9z"/>
<path class="st4" d="M368.6,92.9h-26.3c-1.1,0-2-0.9-2-2v-4.4c0-1.1,0.9-2,2-2h26.3c1.1,0,2,0.9,2,2v4.4
	C370.6,92,369.7,92.9,368.6,92.9z"/>
<path class="st4" d="M140,58.5H82.4c-1.1,0-2-0.9-2-2V44.2c0-1.1,0.9-2,2-2H140c1.1,0,2,0.9,2,2v12.3C142,57.6,141.1,58.5,140,58.5z
	"/>
<path class="st4" d="M448.6,62.8H160.3c-1.1,0-2-0.9-2-2v-21c0-1.1,0.9-2,2-2h288.3c1.1,0,2,0.9,2,2v21
	C450.6,61.9,449.7,62.8,448.6,62.8z"/>
<path class="st5" d="M297.9,252.4H82.4c-1.1,0-2-0.9-2-2V119.6c0-1.1,0.9-2,2-2h215.5c1.1,0,2,0.9,2,2v130.8
	C299.9,251.5,299,252.4,297.9,252.4z"/>
<path class="st5" d="M447.9,175.8H317.4c-1.1,0-2-0.9-2-2v-54.7c0-1.1,0.9-2,2-2h130.5c1.1,0,2,0.9,2,2v54.7
	C449.9,174.9,449,175.8,447.9,175.8z"/>
<path class="st5" d="M447.9,252.4H317.4c-1.1,0-2-0.9-2-2V193c0-1.1,0.9-2,2-2h130.5c1.1,0,2,0.9,2,2v57.4
	C449.9,251.5,449,252.4,447.9,252.4z"/>
</svg>
